<?xml version="1.0" encoding="UTF-8"?>
<svg fill="none" viewBox="0 0 132 32" xmlns="http://www.w3.org/2000/svg">
<path d="m56.63 18.85c-1.7 0-3.07-1.34-3.07-3 0-1.67 1.37-3.01 3.07-3.01s3.07 1.34 3.07 3.01c0 1.66-1.37 3-3.07 3zm0-8.59c-1.28 0-2.45 0.42-3.4 1.11v-0.93c0-0.1-0.08-0.18-0.18-0.18h-2.2c-0.1 0-0.18 0.08-0.18 0.18v14.38c0 0.1 0.08 0.18 0.18 0.18h2.2c0.1 0 0.18-0.08 0.18-0.18v-4.5c0.95 0.69 2.12 1.11 3.4 1.11 3.15 0 5.7-2.5 5.7-5.58 0-3.09-2.55-5.59-5.7-5.59z" fill="#FFFFFE" fill-rule="evenodd"/>
<path d="m67.32 13.77c0.58-0.54 1.29-0.82 2.15-0.82 0.88 0 1.6 0.27 2.17 0.82 0.2 0.19 0.34 0.37 0.47 0.61 0.01 0.02 0.05 0.09 0.06 0.11l-5.34 0.09c0.04-0.08 0.04-0.22 0.08-0.29 0.12-0.19 0.25-0.36 0.41-0.52zm4.36 4.18c-0.57 0.55-1.35 0.89-2.22 0.89s-1.58-0.27-2.15-0.82c-0.25-0.24-0.44-0.52-0.57-0.83-0.06-0.14-0.11-0.28-0.15-0.43 0.01-0.01 0.03-0.1 0.06-0.1h0.09 2.15 3.5 2.57c0.01 0 0.17 0.01 0.18-0.13 0 0 0.04-0.32 0.04-0.64 0-0.78-0.2-1.5-0.2-1.5-0.13-0.45-0.32-0.88-0.56-1.29-0.51-0.86-1.21-1.55-2.11-2.05-0.91-0.5-1.87-0.75-2.9-0.75-1.42 0-2.68 0.48-3.77 1.45-1.25 1.11-1.87 2.49-1.87 4.16 0 1.55 0.55 2.87 1.66 3.96 1.1 1.08 2.43 1.63 3.99 1.63 1.06 0 2.03-0.25 2.91-0.74 0.76-0.43 1.37-1 1.86-1.71-0.26-0.12-0.54-0.3-0.8-0.41-0.42-0.18-0.83-0.37-1.25-0.55-0.23-0.1-0.27-0.12-0.31-0.13-0.04-0.02-0.1-0.07-0.15-0.01z" fill="#FFFFFE" fill-rule="evenodd"/>
<path d="m81.56 10.3c-2.63 0-4.76 2.09-4.76 4.66v2.92 2.11 1.26c0 0.11 0.09 0.19 0.19 0.19h2.37c0.1 0 0.19-0.08 0.19-0.19v-1.26-0.82-1.29-2.92c0-1.09 0.9-1.97 2.01-1.97 1.1 0 2 0.88 2 1.97v2.92 1.29 0.82 1.26c0 0.11 0.09 0.19 0.19 0.19h2.37c0.1 0 0.19-0.08 0.19-0.19v-1.26-2.11-2.92c0-2.57-2.13-4.66-4.75-4.66z" fill="#FFFFFE" fill-rule="evenodd"/>
<path d="m97.08 9.69c0.11 0 0.2-0.09 0.2-0.19v-2.32c0-0.1-0.09-0.18-0.2-0.18h-6.53-2.51c-0.11 0-0.19 0.08-0.19 0.18v2.32 2.97 2.32 4.16 2.32c0 0.1 0.08 0.19 0.19 0.19h2.51 6.53c0.11 0 0.2-0.09 0.2-0.19v-2.32c0-0.1-0.09-0.19-0.2-0.19h-6.34v-3.78h6.02c0.1 0 0.19-0.09 0.19-0.19v-2.32c0-0.1-0.09-0.19-0.19-0.19h-6.02v-2.59h6.34z" fill="#FFFFFE" fill-rule="evenodd"/>
<path d="m103.07 21.41c-2.63 0-4.76-2.08-4.76-4.65v-2.92-2.11-1.27c0-0.1 0.09-0.18 0.2-0.18h2.36c0.11 0 0.19 0.08 0.19 0.18v1.27 0.81 1.3 2.92c0 1.08 0.9 1.96 2.01 1.96s2.01-0.88 2.01-1.96v-2.92-1.3-0.81-1.27c0-0.1 0.08-0.18 0.19-0.18h2.36c0.11 0 0.19 0.08 0.19 0.18v1.27 2.11 2.92c0 2.57-2.13 4.65-4.75 4.65z" fill="#FFFFFE" fill-rule="evenodd"/>
<path d="m111.95 21.39h-2.61l-0.07-14.33 2.68-0.06v14.39z" fill="#FFFFFE" fill-rule="evenodd"/>
<path d="m131.23 10.75c-0.89 0.17-1.66 0.57-2.24 1.12v-1.41c0-0.1-0.09-0.19-0.19-0.19h-2.21c-0.11 0-0.19 0.09-0.19 0.19v10.82c0 0.1 0.08 0.18 0.19 0.18h2.21c0.1 0 0.19-0.08 0.19-0.18v-5.63c0.05-0.56 0.21-0.95 0.6-1.36 0.55-0.64 1.31-1.03 2.24-1.21 0.05-0.01 0.17-0.04 0.17-0.1-0.01-1.38-0.01-1.89-0.01-1.91 0.01-0.07 0.01-0.3 0.01-0.36 0 0-0.43-0.03-0.77 0.04z" fill="#FFFFFE" fill-rule="evenodd"/>
<path d="m117.01 13.72c0.57-0.55 1.29-0.82 2.15-0.82 0.88 0 1.6 0.27 2.16 0.81 0.2 0.2 0.35 0.38 0.47 0.62 0.02 0.02 0.05 0.08 0.06 0.11l-5.33 0.09c0.03-0.08 0.04-0.22 0.08-0.29 0.11-0.19 0.25-0.36 0.41-0.52zm4.36 4.18c-0.58 0.55-1.36 0.89-2.22 0.89-0.87 0-1.59-0.27-2.15-0.82-0.25-0.24-0.44-0.52-0.58-0.83-0.06-0.14-0.11-0.28-0.15-0.43 0.01-0.01 0.04-0.1 0.06-0.1h0.1 2.14 3.5 2.58s0.16 0.01 0.18-0.13c0 0 0.04-0.32 0.04-0.64 0-0.78-0.21-1.5-0.21-1.5-0.13-0.45-0.31-0.88-0.55-1.29-0.51-0.86-1.22-1.55-2.12-2.05s-1.87-0.75-2.89-0.75c-1.42 0-2.68 0.48-3.77 1.45-1.25 1.1-1.87 2.49-1.87 4.16 0 1.55 0.55 2.87 1.65 3.95 1.11 1.09 2.44 1.63 4 1.63 1.06 0 2.03-0.24 2.91-0.73 0.76-0.43 1.37-1 1.85-1.71-0.25-0.12-0.54-0.3-0.79-0.41-0.42-0.18-0.84-0.37-1.25-0.55-0.23-0.1-0.27-0.12-0.31-0.14-0.05-0.01-0.11-0.06-0.15 0z" fill="#FFFFFE" fill-rule="evenodd"/>
<path d="m45.93 15.83c0 0.18-0.09 0.34-0.25 0.43l-2.9 1.64c-0.16 0.09-0.35 0.09-0.51 0l-2.9-1.64c-0.16-0.09-0.25-0.25-0.25-0.43v-3.27c0-0.18 0.09-0.35 0.25-0.44l2.9-1.64c0.16-0.09 0.35-0.09 0.51 0l2.9 1.64c0.16 0.09 0.25 0.26 0.25 0.44v3.27zm2.51-5.67-5.3-3c-0.38-0.22-0.85-0.22-1.23 0l-5.3 3c-0.38 0.21-0.61 0.6-0.61 1.03v6c0 0.43 0.23 0.82 0.61 1.04l5.3 3c0.38 0.21 0.85 0.21 1.23 0l5.3-3c0.38-0.22 0.61-0.61 0.61-1.04v-6c0-0.43-0.23-0.82-0.61-1.03z" fill="#FFFFFE" fill-rule="evenodd"/>
<mask id="a" x="0.000000" y="0.000000" width="28.000000" height="32.000000" mask-type="alpha" maskUnits="userSpaceOnUse">
<path d="m0 0h28v32h-28v-32z" fill="#fff"/>
</mask>
<g mask="url(#a)">
<path id="b" d="m25.11 12.47c-0.62 0.79-2.2 1.11-3.46 0.7-1.21-0.38-1.59-1.27-0.94-1.97 0.63-0.68 2.03-0.97 3.2-0.66 1.22 0.32 1.79 1.18 1.2 1.93zm-5.56-1.61c-0.66 0.68-2.07 0.97-3.09 0.64-0.57-0.18-0.88-0.56-0.9-0.88-0.01-0.24-0.38-0.47-0.78-0.59-0.41-0.12-0.88-0.11-1.35-0.05-0.12 0.01-0.37 0.07-0.53 0.12-0.43 0.15-0.81 0.31-1.12 0.57-0.39 0.33-0.52 0.91-0.51 1.12 0.01 0.3 0.29 0.56 0.71 0.72 0.41 0.16 0.92 0.18 1.43 0.1 0.63-0.17 1.31-0.17 1.87 0.03 1.03 0.36 1.29 1.29 0.51 2.09-0.81 0.83-2.36 1.15-3.4 0.69-0.57-0.26-0.77-0.72-0.8-1.15-0.03-0.34-0.33-0.6-0.73-0.77-0.41-0.17-0.89-0.16-1.42-0.12-0.07 0.01-0.38 0.07-0.58 0.12-0.27 0.08-0.82 0.23-1.28 0.69-0.36 0.36-0.52 0.7-0.62 0.91-0.05 0.11-0.11 0.38-0.12 0.47-0.01 0.38 0.2 0.72 0.62 0.94 0.41 0.22 0.95 0.27 1.5 0.19 0.7-0.19 1.42-0.17 1.99 0.11 1.03 0.51 1.15 1.72 0.18 2.72-1.02 1.04-2.75 1.38-3.77 0.73-0.56-0.35-0.73-0.88-0.65-1.5 0-0.01 0-0.16-0.02-0.23 0 0-0.01-0.13-0.09-0.28-0.11-0.22-0.28-0.39-0.51-0.53-0.4-0.23-0.93-0.29-1.48-0.21-0.69 0.19-1.36 0.16-1.81-0.11-0.75-0.48-0.53-1.49 0.44-2.25 0.5-0.4 1.11-0.65 1.69-0.75 0.55-0.12 1.11-0.37 1.55-0.73 0.44-0.35 0.66-0.73 0.68-1.06 0.01-0.01 0.01-0.18-0.02-0.36-0.02-0.28 0-0.57 0.25-0.87 0.17-0.2 0.52-0.39 0.92-0.46 0.26-0.05 0.61-0.04 0.8-0.05 0.17-0.01 0.46-0.05 0.57-0.08 0.39-0.12 0.62-0.25 0.92-0.49 0.29-0.24 0.48-0.49 0.51-0.72 0.01-0.05 0.02-0.27 0.02-0.3-0.1-0.54 0.65-1.13 1.67-1.32 0.51-0.1 1-0.08 1.37 0.04 0.37 0.1 0.65 0.29 0.74 0.51 0.01 0.04 0.03 0.1 0.03 0.14 0.09 0.24 0.35 0.44 0.77 0.56 0.41 0.11 0.89 0.12 1.36 0.04 0.57-0.15 1.21-0.18 1.76-0.03 1.01 0.26 1.35 0.99 0.72 1.64zm-2.38 12.02c-1.01 1.29-3.02 1.66-4.36 0.81-1.27-0.79-1.38-2.34-0.36-3.43 0.97-1.05 2.69-1.39 3.95-0.77 1.33 0.65 1.72 2.16 0.77 3.39zm9.86-15.6-12.07-7.02c-0.6-0.35-1.33-0.35-1.93 0l-12.07 7.02c-0.6 0.35-0.96 0.99-0.96 1.69v14.05c0 0.7 0.36 1.34 0.96 1.69l12.07 7.02c0.6 0.35 1.33 0.35 1.93 0l12.07-7.02c0.6-0.35 0.97-0.99 0.97-1.69v-14.05c0-0.7-0.37-1.34-0.97-1.69z" fill="#002FA7" fill-rule="evenodd"/>
<path d="m21.65 13.17c-1.21-0.38-1.59-1.27-0.94-1.97 0.63-0.68 2.03-0.97 3.2-0.66 1.22 0.32 1.79 1.18 1.2 1.93-0.62 0.79-2.2 1.11-3.46 0.7zm-5.19-1.67c-0.57-0.18-0.88-0.56-0.9-0.88-0.01-0.24-0.38-0.47-0.78-0.59-0.41-0.12-0.88-0.11-1.35-0.05-0.12 0.01-0.37 0.07-0.53 0.12-0.43 0.15-0.81 0.31-1.12 0.57-0.39 0.33-0.52 0.91-0.51 1.12 0.01 0.3 0.29 0.56 0.71 0.72 0.41 0.16 0.92 0.18 1.43 0.1 0.63-0.17 1.31-0.17 1.87 0.03 1.03 0.36 1.29 1.29 0.51 2.09-0.81 0.83-2.36 1.15-3.4 0.69-0.57-0.26-0.77-0.72-0.8-1.15-0.03-0.34-0.33-0.6-0.73-0.77-0.41-0.17-0.89-0.16-1.42-0.12-0.07 0.01-0.38 0.07-0.58 0.12-0.27 0.08-0.82 0.23-1.28 0.69-0.36 0.36-0.52 0.7-0.62 0.91-0.05 0.11-0.11 0.38-0.12 0.47-0.01 0.38 0.2 0.72 0.62 0.94 0.41 0.22 0.95 0.27 1.5 0.19 0.7-0.19 1.42-0.17 1.99 0.11 1.03 0.51 1.15 1.72 0.18 2.72-1.02 1.04-2.75 1.38-3.77 0.73-0.56-0.35-0.73-0.88-0.65-1.5 0-0.01 0-0.16-0.02-0.23 0 0-0.01-0.13-0.09-0.28-0.11-0.22-0.28-0.39-0.51-0.53-0.4-0.23-0.93-0.29-1.48-0.21-0.69 0.19-1.36 0.16-1.81-0.11-0.75-0.48-0.53-1.49 0.44-2.25 0.5-0.4 1.11-0.65 1.69-0.75 0.55-0.12 1.11-0.37 1.55-0.73 0.44-0.35 0.66-0.73 0.68-1.06 0.01-0.01 0.01-0.18-0.02-0.36-0.02-0.28 0-0.57 0.25-0.87 0.17-0.2 0.52-0.39 0.92-0.46 0.26-0.05 0.61-0.04 0.8-0.05 0.17-0.01 0.46-0.05 0.57-0.08 0.39-0.12 0.62-0.25 0.92-0.49 0.29-0.24 0.48-0.49 0.51-0.72 0.01-0.05 0.02-0.27 0.02-0.3-0.1-0.54 0.65-1.13 1.67-1.32 0.51-0.1 1-0.08 1.37 0.04 0.37 0.1 0.65 0.29 0.74 0.51 0.01 0.04 0.03 0.1 0.03 0.14 0.09 0.24 0.35 0.44 0.77 0.56 0.41 0.11 0.89 0.12 1.36 0.04 0.57-0.15 1.21-0.18 1.76-0.03 1.01 0.26 1.35 0.99 0.72 1.64-0.66 0.68-2.07 0.97-3.09 0.64zm-3.65 12.19c-1.27-0.79-1.38-2.34-0.36-3.43 0.97-1.05 2.69-1.39 3.95-0.77 1.33 0.65 1.72 2.16 0.77 3.39-1.01 1.29-3.02 1.66-4.36 0.81zm2.15-23.43c-0.6-0.35-1.33-0.35-1.93 0l-12.07 7.02c-0.6 0.35-0.96 0.99-0.96 1.69v14.05c0 0.7 0.36 1.34 0.96 1.69l12.07 7.02c0.6 0.35 1.33 0.35 1.93 0l12.07-7.02c0.6-0.35 0.97-0.99 0.97-1.69v-14.05c0-0.7-0.37-1.34-0.97-1.69l-12.07-7.02z" stroke="#000" stroke-opacity="0"/>
</g>
</svg>
