<?xml version="1.0" encoding="UTF-8"?>
<svg id="id_1" data-name="id_1" xmlns="http://www.w3.org/2000/svg" viewBox="73 43 108 108">
  <defs>
    <style>
      .cls-1 {
        fill: currentColor;
      }
    </style>
  </defs>
  <path class="cls-1" d="m170.54,69.83l-42.27-24.4c-1.13-.65-2.53-.65-3.66.02l-42.28,24.4c-1.12.65-1.82,1.85-1.83,3.15v48.82c0,1.31.69,2.52,1.83,3.18l42.28,24.41c1.13.65,2.53.65,3.66,0l42.27-24.41c1.14-.65,1.83-1.86,1.83-3.17v-48.83c0-1.31-.7-2.52-1.83-3.17Zm-33.72,49.99c-3.3,4.2-9.89,5.42-14.3,2.66-4.19-2.59-4.52-7.61-1.19-11.18,3.39-3.46,8.57-4.45,13-2.49.65.28,1.26.67,1.8,1.13,2.92,2.54,3.23,6.96.69,9.88Zm7.89-39.11c-2.14,2.21-6.79,3.15-10.14,2.09-1.92-.6-2.94-1.87-3-2.87-.04-.8-1.24-1.53-2.57-1.93-1.45-.34-2.94-.39-4.41-.15-.59.09-1.18.22-1.75.4-1.33.39-2.58,1.02-3.68,1.86-1.02.95-1.62,2.25-1.67,3.64.05.98.95,1.82,2.33,2.34,1.52.51,3.14.62,4.71.34,2.01-.58,4.14-.55,6.13.07,3.36,1.19,4.22,4.22,1.67,6.82-3,2.77-7.31,3.64-11.15,2.23-1.54-.61-2.58-2.07-2.65-3.73-.08-1.09-1.05-1.96-2.38-2.51-1.5-.49-3.09-.62-4.65-.38-.23.02-1.27.23-1.91.4-1.57.35-3.02,1.12-4.19,2.22-.85.87-1.53,1.88-2,3-.2.5-.33,1.02-.4,1.55.02,1.31.8,2.48,2,3,1.55.73,3.28.95,4.96.65,2.14-.66,4.45-.53,6.51.35,3.39,1.65,3.79,5.59.6,8.84-3.38,3.4-9.02,4.5-12.38,2.4-1.68-1.02-2.53-2.98-2.12-4.9,0-.25-.03-.5-.07-.74-.05-.32-.15-.62-.3-.91-.38-.72-.97-1.32-1.68-1.71-1.5-.76-3.2-1-4.85-.68-1.95.67-4.08.53-5.93-.38-2.48-1.55-1.73-4.83,1.45-7.31,1.62-1.25,3.52-2.09,5.53-2.45,1.86-.37,3.61-1.17,5.1-2.34,1.19-.79,2-2.05,2.23-3.46.01-.39-.01-.78-.08-1.17-.14-1.02.16-2.06.83-2.84.82-.8,1.87-1.33,3-1.5.88-.12,1.76-.17,2.64-.16.63-.03,1.25-.12,1.86-.25,1.1-.31,2.12-.85,3-1.58.83-.55,1.43-1.39,1.69-2.36.04-.33.06-.67.06-1-.32-1.75,2.13-3.68,5.47-4.3,1.49-.32,3.04-.26,4.51.15h.12c.98.15,1.83.75,2.3,1.63v.06c.05.13.09.26.1.4.5.96,1.43,1.63,2.5,1.81,1.47.36,3,.41,4.49.13,1.89-.51,3.87-.55,5.77-.11,3.3.85,4.54,3.13,2.4,5.34Zm18.23,5.26c-2.02,2.56-7.23,3.6-11.37,2.28-3.94-1.26-5.14-4.28-3.08-6.43,2.06-2.15,6.67-3.15,10.51-2.15,4,1.04,5.96,3.74,3.94,6.3Z"/>
</svg>
